<?xml version="1.0" encoding="UTF-8" standalone="no"?>
<!-- Created with Inkscape (http://www.inkscape.org/) -->

<svg
   width="4000"
   height="4000"
   viewBox="0 0 1058.3333 1058.3333"
   version="1.1"
   id="svg1"
   xmlns:inkscape="http://www.inkscape.org/namespaces/inkscape"
   xmlns:sodipodi="http://sodipodi.sourceforge.net/DTD/sodipodi-0.dtd"
   xmlns="http://www.w3.org/2000/svg"
   xmlns:svg="http://www.w3.org/2000/svg">
  <sodipodi:namedview
     id="namedview1"
     pagecolor="#ffffff"
     bordercolor="#111111"
     borderopacity="1"
     inkscape:showpageshadow="0"
     inkscape:pageopacity="0"
     inkscape:pagecheckerboard="1"
     inkscape:deskcolor="#ffffff"
     inkscape:document-units="mm"
     shape-rendering="auto"
     inkscape:zoom="0.053622636"
     inkscape:cx="801.90015"
     inkscape:cy="3478.0088"
     inkscape:window-width="1600"
     inkscape:window-height="877"
     inkscape:window-x="-8"
     inkscape:window-y="-8"
     inkscape:window-maximized="1"
     inkscape:current-layer="layer1">
    <inkscape:page
       x="-0.00046460691"
       y="0"
       width="1058.3333"
       height="1058.3333"
       id="page100"
       margin="0"
       bleed="0" />
  </sodipodi:namedview>
  <defs
     id="defs1" />
  <g
     inkscape:label="Layer 1"
     inkscape:groupmode="layer"
     id="layer1"
     transform="translate(-14956.666)">
    <rect
       style="fill:#ffffff;stroke:none;stroke-width:4;stroke-linecap:round;stroke-linejoin:round"
       id="rect112"
       width="1058.3334"
       height="1058.3334"
       x="14956.661"
       y="-4.4368491e-05" />
    <g
       id="g1381"
       style="fill:#2c89a0;fill-opacity:1;stroke:#ffffff;stroke-width:0.216972"
       transform="matrix(4.608891,0,0,4.608891,3210.3927,-6158.2491)">
      <g
         id="path1429"
         style="fill:#2c89a0;fill-opacity:1;stroke-width:0.216972">
        <path
           style="color:#000000;fill:#2c89a0;fill-opacity:1;fill-rule:evenodd;stroke:none;stroke-width:0.216972;stroke-linecap:round;stroke-linejoin:round;-inkscape-stroke:none"
           d="m 2657.9096,1391.712 c -3.2774,0.1137 -5.6849,2.2997 -7.5902,4.4519 -2.032,2.2956 -3.774,4.5994 -5.0581,5.1376 a 1.1866336,1.1849388 0 0 0 -0.044,0.044 c -1.6734,0.8054 -2.769,0.5504 -4.3233,0.1302 -1.5539,-0.4213 -3.4989,-1.0842 -6.0095,-0.6041 -7.3663,1.4758 -11.0309,5.4745 -11.932,9.3245 a 1.1866336,1.1849388 0 0 0 0.089,0.7772 l 7.0714,14.7629 h -6.3381 c -0.1992,0 -0.4139,-0.022 -0.6485,0 v -5e-4 c -0.4582,0.046 -0.883,0.1479 -1.2526,0.2589 -2.675,0.8152 -4.6256,3.3314 -4.6256,6.2596 l -2.4164,27.1539 v 0 l -0.044,0.3457 c -0.1328,0.5004 -0.2589,0.9995 -0.2589,1.5539 v 42.4367 c 0,3.5913 2.9314,6.5185 6.5278,6.5185 h 78.25 c 3.5964,0 6.5283,-2.9272 6.5283,-6.5185 v -42.4367 c 0,-0.5446 -0.1327,-1.0433 -0.2589,-1.5539 l -0.044,-0.3457 h -0.01 l -2.4572,-27.1539 c 0,-2.9156 -1.928,-5.3898 -4.5826,-6.2162 -0.1771,-0.058 -0.3739,-0.124 -0.6041,-0.1726 a 1.1866336,1.1849388 0 0 0 -0.044,0 l -0.1328,-0.044 c -0.1549,-0.029 -0.301,-0.069 -0.4759,-0.086 -0.2435,-0.024 -0.4895,0 -0.6909,0 h -6.1309 l 5.658,-15.0657 a 1.1866336,1.1849388 0 0 0 0.044,-0.1721 c 0.7216,-3.6758 0.3277,-6.654 -1.556,-8.5478 -1.8837,-1.8938 -4.8822,-2.402 -8.6899,-1.9859 a 1.1866336,1.1849388 0 0 0 -0.044,0 c -1.9722,0.2955 -3.3885,0.8678 -4.8855,1.2521 -1.441,0.3703 -3.1078,0.5913 -5.6198,0.3886 -2.8658,-1.1723 -3.9501,-2.9603 -5.8798,-5.008 -1.9678,-2.0888 -4.8412,-4.1729 -10.7647,-4.8782 a 1.1866336,1.1849388 0 0 0 -0.089,0 v 0 c -0.2263,-0.011 -0.4486,-0.013 -0.6671,-0.01 z m -0.4894,2.4318 1.5038,17.5612 a 1.186515,1.1848204 0 0 0 1.2971,1.0796 1.186515,1.1848204 0 0 0 1.08,-1.295 l -1.4712,-17.1819 c 4.4285,0.7471 6.277,2.2006 7.8646,3.8855 1.5875,1.6854 2.979,3.827 5.9278,5.2689 l -4.3232,19.0361 a 1.186515,1.1848204 0 0 0 0.8656,1.4242 1.186515,1.1848204 0 0 0 1.4252,-0.9064 l 4.3475,-18.9637 c 2.3753,0.1137 4.1281,-0.1733 5.5919,-0.5499 1.6601,-0.4264 2.9161,-0.9534 4.5822,-1.2087 3.4533,-0.3773 5.6174,0.2057 6.7443,1.3385 1.1266,1.1332 1.552,3.1483 0.9079,6.4326 l -6.167,16.3902 a 1.1866336,1.1849388 0 0 0 -0.012,0.014 l -5.2209,13.8922 -2.5208,6.6998 -36.8737,0.044 -9.9001,-20.7218 -7.5665,-15.8403 c 0.7393,-2.8076 3.2339,-6.0209 9.8134,-7.3391 1.9081,-0.365 3.2701,0.1127 4.9283,0.5612 0.85,0.2302 1.7986,0.4351 2.8273,0.4361 l 6.213,25.9835 a 1.186515,1.1848204 0 0 0 1.4278,0.9069 1.186515,1.1848204 0 0 0 0.8656,-1.4247 l -6.135,-25.8693 c 0.2389,-0.084 0.4795,-0.1756 0.7245,-0.2914 2.4527,-1.0278 4.0257,-3.5992 5.9226,-5.7418 1.6358,-1.8467 3.2789,-3.3261 5.3325,-3.6179 z m 32.0911,33.9654 h 7.0269 c 0.1771,0 0.3214,-0.011 0.4321,0 0.1328,0.013 0.2788,0.012 0.4315,0.044 0.1107,0.022 0.2212,0.086 0.3452,0.1303 a 1.1866336,1.1849388 0 0 0 0.044,0 c 1.7021,0.5188 2.9401,2.0822 2.9399,3.9718 a 1.1866336,1.1849388 0 0 0 0,0.086 l 2.5507,28.7946 c 0.1988,2.1878 -1.831,4.0577 -4.1506,4.0577 h -2.5937 -72.7599 -2.5502 c -0.8698,0 -1.6984,-0.2626 -2.3839,-0.7065 l -5e-4,-5e-4 c -0.4568,-0.2959 -0.85,-0.6723 -1.1498,-1.1048 l -5e-4,-5e-4 c -0.1247,-0.1801 -0.2225,-0.3754 -0.3126,-0.5731 -0.018,-0.04 -0.046,-0.074 -0.063,-0.1148 -10e-5,-3e-4 -3e-4,-6e-4 -5e-4,0 -0.1001,-0.2435 -0.1718,-0.4988 -0.2129,-0.7617 -0.04,-0.2555 -0.05,-0.5186 -0.027,-0.7865 3e-4,0 -2e-4,-0.01 0,-0.01 l 2.5508,-28.7946 a 1.1866336,1.1849388 0 0 0 0,-0.086 c 0,-1.8901 1.237,-3.4528 2.9394,-3.9718 0.2877,-0.086 0.5335,-0.1478 0.7792,-0.1721 v 0 c 0.1107,-0.011 0.2787,0 0.4315,0 h 7.4703 l 5.0385,10.5193 c -2.8354,0.7094 -4.948,3.2706 -4.948,6.3169 v 3.4107 c 0,3.5913 2.9289,6.5184 6.5282,6.5184 h 44.572 c 3.5996,0 6.5286,-2.9271 6.5283,-6.5184 v -3.4107 c 0,-2.5512 -1.4493,-4.7692 -3.5879,-5.8389 z m -52.033,13.0375 5e-4,10e-4 3.6747,7.6409 a 1.1866336,1.1849388 0 0 0 0.4398,0.5043 1.1866336,1.1849388 0 0 0 0.6428,0.1881 l 38.4328,-0.044 a 1.1866336,1.1849388 0 0 0 0.6868,-0.2119 1.1866336,1.1849388 0 0 0 0.4408,-0.5669 l 0.9054,-2.4169 1.6164,-4.3046 c 1.1145,0.7315 2.3151,1.5581 2.3151,3.0086 v 3.4106 c 0,2.32 -1.8725,4.1445 -4.1935,4.1445 h -44.5725 c -2.3201,0 -4.1501,-1.8246 -4.1501,-4.1445 v -3.4106 c 0,-2.1035 1.7485,-3.4998 3.761,-3.7987 z m -20.5771,24.8517 c 1.1817,0.9794 2.7172,1.5694 4.3238,1.5694 h 2.5497 v 0 h 72.7583 v 0 h 2.5932 v 0 c 1.6056,0 3.1407,-0.5892 4.3222,-1.5674 v 37.744 c 0,2.32 -1.826,4.1873 -4.1501,4.1873 h -78.25 c -2.3235,0 -4.1502,-1.8673 -4.1502,-4.1873 z"
           id="path252" />
        <path
           style="color:#000000;fill:#2c89a0;fill-opacity:1;fill-rule:evenodd;stroke:none;stroke-width:0.216972;stroke-linecap:round;stroke-linejoin:round;-inkscape-stroke:none"
           d="m 2657.9023,1391.209 a 0.50004899,0.50004899 0 0 0 -0.3652,0.3515 l 0.3555,-0.3476 c -3.4909,0.1211 -6.0148,2.4362 -7.9473,4.6191 -1.024,1.1569 -1.9688,2.308 -2.8047,3.2227 -0.8359,0.9147 -1.5904,1.5832 -2.0722,1.7851 a 0.50004899,0.50004899 0 0 0 -0.092,0.061 c -1.5422,0.7346 -2.414,0.5074 -3.9512,0.092 -1.5278,-0.4142 -3.5936,-1.1163 -6.2344,-0.6113 -7.5055,1.5037 -11.3701,5.633 -12.3223,9.7011 -0.084,0.3722 -0.039,0.7621 0.127,1.1055 l 6.7266,14.0449 h -5.543 c -0.1624,0 -0.4016,-0.026 -0.6953,0 -0.5007,0.05 -0.9558,0.1602 -1.3457,0.2773 -2.8846,0.8791 -4.9805,3.5881 -4.9805,6.7383 v -0.045 l -2.416,27.1445 -0.043,0.3379 0.014,-0.066 c -0.1338,0.5042 -0.2754,1.0534 -0.2754,1.6836 v 42.4355 c 0,3.8634 3.1596,7.0196 7.0273,7.0196 h 78.25 c 3.8677,0 7.0274,-3.1561 7.0274,-7.0196 v -42.4355 c 0,-0.6258 -0.1486,-1.1689 -0.2735,-1.6738 l 0.012,0.057 -0.045,-0.3457 a 0.50004899,0.50004899 0 0 0 -0.496,-0.4375 h 0.4472 l -2.416,-26.6992 v 0.045 c 0,-3.136 -2.0742,-5.8032 -4.9336,-6.6934 -0.1736,-0.057 -0.3902,-0.1286 -0.6504,-0.1835 a 0.50004899,0.50004899 0 0 0 -0.049,-0.01 l -0.072,-0.023 a 0.50004899,0.50004899 0 0 0 -0.066,-0.018 c -0.1286,-0.024 -0.2955,-0.07 -0.5176,-0.092 v 0 c -0.3075,-0.03 -0.577,0 -0.7382,0 h -5.4102 l 5.4043,-14.3906 a 0.50004899,0.50004899 0 0 0 0.01,-0.016 c 0.026,-0.077 0.046,-0.1566 0.061,-0.2363 v 0 c 0.7375,-3.7587 0.3522,-6.9396 -1.6914,-8.9941 -2.0393,-2.0502 -5.22,-2.5549 -9.0996,-2.1309 h 0.064 c -0.021,-3e-4 -0.042,-3e-4 -0.062,0 a 0.50004899,0.50004899 0 0 0 -0.064,0 c -2.0311,0.3043 -3.4808,0.8902 -4.9356,1.2636 -1.3764,0.3537 -2.9586,0.5569 -5.3613,0.3731 -2.6877,-1.1215 -3.7024,-2.7845 -5.6504,-4.8516 -2.0205,-2.1448 -5.0508,-4.3145 -11.0703,-5.0312 a 0.50004899,0.50004899 0 0 0 -0.039,0 c -0.028,0 -0.056,-4e-4 -0.084,0 h -0.043 c -0.2238,-0.01 -0.4439,-0.013 -0.6563,-0.01 z m 0.027,1 c 0.2063,0 0.4142,-4e-4 0.623,0.01 a 0.50004899,0.50004899 0 0 0 0.043,0 c 0.011,-4e-4 0.021,-10e-5 0.031,0 5.8121,0.6963 8.5268,2.6905 10.4394,4.7207 1.8942,2.01 3.0649,3.9039 6.0547,5.1269 a 0.50004899,0.50004899 0 0 0 0.1484,0.037 c 2.5587,0.2065 4.3006,-0.021 5.7852,-0.4023 1.5354,-0.3942 2.9182,-0.951 4.8242,-1.2383 a 0.50004899,0.50004899 0 0 0 0.035,0 c 3.7358,-0.4082 6.5531,0.1044 8.2812,1.8418 1.7235,1.7327 2.1251,4.5057 1.4199,8.0977 a 0.50004899,0.50004899 0 0 0 0,0.01 c -0.01,0.034 -0.014,0.067 -0.025,0.1 l -5.6524,15.0507 a 0.50004899,0.50004899 0 0 0 0.4688,0.6758 h 6.1309 c 0.2411,0 0.4622,-0.022 0.6406,0 0.1155,0.011 0.2378,0.041 0.3946,0.072 l 0.1054,0.035 a 0.50004899,0.50004899 0 0 0 0.098,0.016 c 0.197,0.042 0.3712,0.099 0.5508,0.1582 a 0.50004899,0.50004899 0 0 0 0.01,0 c 2.4498,0.7627 4.2305,3.0431 4.2305,5.7383 a 0.50004899,0.50004899 0 0 0 0,0.045 l 2.457,27.1543 a 0.50004899,0.50004899 0 0 0 0.4981,0.4551 h -0.4258 c 0.1239,0.5007 0.2383,0.9484 0.2383,1.4004 v 42.4355 c 0,3.3192 -2.7023,6.0196 -6.0274,6.0196 h -78.25 c -3.325,0 -6.0273,-2.7003 -6.0273,-6.0196 v -42.4355 c 0,-0.4786 0.1104,-0.9292 0.2422,-1.4258 a 0.50004899,0.50004899 0 0 0 0.012,-0.066 l 0.045,-0.3457 a 0.50004899,0.50004899 0 0 0 0,-0.018 l 2.416,-27.1543 a 0.50004899,0.50004899 0 0 0 0,-0.045 c 0,-2.7055 1.8051,-5.0294 4.2696,-5.7812 0.348,-0.1046 0.7402,-0.1964 1.1543,-0.2383 0.1755,-0.016 0.3656,0 0.6016,0 h 6.3379 a 0.50004899,0.50004899 0 0 0 0.4512,-0.7168 l -7.0723,-14.7617 c -0.067,-0.1385 -0.086,-0.2953 -0.053,-0.4454 0.8498,-3.6311 4.3152,-7.4986 11.539,-8.9472 2.3804,-0.4552 4.2051,0.1673 5.7852,0.5957 1.5622,0.4223 2.8825,0.6981 4.6699,-0.1621 a 0.50004899,0.50004899 0 0 0 0.1465,-0.1074 c 0.01,-0.01 0.017,-0.017 0.025,-0.025 l -0.1504,0.098 c 0.8023,-0.3362 1.5597,-1.0875 2.4238,-2.0332 0.8641,-0.9456 1.8065,-2.0937 2.8145,-3.2324 1.8781,-2.1215 4.1704,-4.1789 7.2343,-4.2852 z m -0.5781,1.4433 c -0.038,0.01 -0.064,0.039 -0.1016,0.045 a 0.50004899,0.50004899 0 0 0 -0.055,0.022 c -2.1663,0.3743 -3.8629,1.8909 -5.4785,3.7148 -1.9376,2.1885 -3.4934,4.669 -5.7422,5.6113 a 0.50004899,0.50004899 0 0 0 -0.021,0.01 c -0.2227,0.1053 -0.4451,0.1904 -0.6758,0.2715 a 0.50004899,0.50004899 0 0 0 -0.3203,0.5859 l 6.1348,25.8692 c 0.088,0.3676 -0.1302,0.7224 -0.4961,0.8184 -0.3784,0.085 -0.7413,-0.1431 -0.8223,-0.5215 a 0.50004899,0.50004899 0 0 0 0,-0.012 l -6.2129,-25.9844 a 0.50004899,0.50004899 0 0 0 -0.4863,-0.3828 c -0.9626,-10e-4 -1.8656,-0.1928 -2.6973,-0.418 -1.6384,-0.4432 -3.122,-0.9587 -5.1523,-0.5703 -6.7091,1.3442 -9.4134,4.7185 -10.1993,7.7031 a 0.50004899,0.50004899 0 0 0 0.031,0.3418 l 7.5664,15.8418 9.9004,20.7207 a 0.50004899,0.50004899 0 0 0 0.4531,0.2852 l 36.8731,-0.045 a 0.50004899,0.50004899 0 0 0 0.4667,-0.3242 l 2.5215,-6.6992 5.2149,-13.875 a 0.50004899,0.50004899 0 0 0 0.018,-0.031 l 6.1679,-16.3907 a 0.50004899,0.50004899 0 0 0 0.022,-0.08 c 0.6595,-3.363 0.2482,-5.5822 -1.043,-6.8809 -1.2921,-1.2989 -3.6233,-1.8682 -7.1543,-1.4824 a 0.50004899,0.50004899 0 0 0 -0.021,0 c -1.7308,0.2652 -3.0081,0.802 -4.6309,1.2188 -1.4299,0.3679 -3.1199,0.6464 -5.4434,0.5351 a 0.50004899,0.50004899 0 0 0 -0.5117,0.3887 l -4.3457,18.9629 a 0.50004899,0.50004899 0 0 0 0,0.01 c -0.081,0.3764 -0.4437,0.6032 -0.8203,0.5214 -0.3658,-0.096 -0.5839,-0.4489 -0.4961,-0.8164 a 0.50004899,0.50004899 0 0 0 0,-0.01 l 4.3223,-19.0371 a 0.50004899,0.50004899 0 0 0 -0.2676,-0.5586 c -2.829,-1.3834 -4.1507,-3.431 -5.7832,-5.1641 -1.622,-1.7214 -3.6356,-3.2741 -8.1465,-4.0351 a 0.50004899,0.50004899 0 0 0 -0.5801,0.5351 l 1.4707,17.1836 c 0.037,0.3853 -0.2376,0.717 -0.625,0.75 a 0.50004899,0.50004899 0 0 0 -0.01,0 c -0.3873,0.038 -0.7174,-0.239 -0.75,-0.625 l -1.502,-17.5293 a 0.50004899,0.50004899 0 0 0 0,-0.01 v -0.023 h -0.01 a 0.50004899,0.50004899 0 0 0 -0.1289,-0.3027 v 0 a 0.50004899,0.50004899 0 0 0 -0.4493,-0.086 z m -0.3711,1.2129 1.4453,16.8828 c 0.078,0.9283 0.9128,1.6207 1.8398,1.5333 0.9271,-0.081 1.6222,-0.9117 1.5332,-1.8379 l -1.4082,-16.4395 c 3.7364,0.7602 5.4897,1.9926 6.9395,3.5313 1.4702,1.5608 2.9499,3.6357 5.7344,5.1289 l -4.252,18.7187 c -0.2132,0.8926 0.3401,1.8025 1.2305,2.0254 a 0.50004899,0.50004899 0 0 0 0.01,0 c 0.9106,0.2084 1.8293,-0.376 2.0254,-1.2891 v 0.01 l 4.2598,-18.5879 c 2.1933,0.059 3.9173,-0.1928 5.3164,-0.5528 1.6916,-0.4345 2.9241,-0.9489 4.5176,-1.1953 3.3712,-0.3671 5.3691,0.2274 6.3301,1.1934 0.9585,0.9642 1.3922,2.7728 0.7734,5.957 l -6.1406,16.3203 a 0.50004899,0.50004899 0 0 0 -0.018,0.031 l -5.2207,13.8925 -2.4004,6.375 -36.2109,0.045 -9.7657,-20.4375 -7.4726,-15.6426 c 0.7368,-2.5971 3.0323,-5.5604 9.3633,-6.8301 1.7859,-0.3416 3.0251,0.099 4.7031,0.5527 0.7485,0.2028 1.6295,0.3416 2.5488,0.3907 l 6.1328,25.6504 c 2e-4,9e-4 0,10e-4 0,0 0.197,0.9135 1.1163,1.4976 2.0273,1.2871 a 0.50004899,0.50004899 0 0 0 0.01,0 c 0.8906,-0.2229 1.4441,-1.1327 1.2305,-2.0254 l -6.0352,-25.4492 c 0.1114,-0.045 0.2171,-0.081 0.332,-0.1348 2.6566,-1.1132 4.2473,-3.7744 6.1035,-5.8711 1.4551,-1.6427 2.8907,-2.8024 4.5157,-3.2305 z m 32.5312,32.7442 a 0.50004899,0.50004899 0 0 0 -0.4687,0.3242 l -4.1328,10.998 a 0.50004899,0.50004899 0 0 0 0.2441,0.6231 c 1.9721,0.9864 3.3125,3.0307 3.3125,5.3926 v 3.4101 c 3e-4,3.3194 -2.7008,6.0196 -6.0293,6.0196 h -44.5703 c -3.3282,0 -6.0293,-2.7001 -6.0293,-6.0196 v -3.4101 c 0,-2.8152 1.9531,-5.1772 4.5703,-5.8321 a 0.50004899,0.50004899 0 0 0 0.3281,-0.7011 l -5.0371,-10.5196 a 0.50004899,0.50004899 0 0 0 -0.4512,-0.2832 h -7.4707 c -0.1288,0 -0.2876,-0.017 -0.4804,0 -0.2958,0.029 -0.5735,0.1018 -0.8731,0.1914 -1.9055,0.5809 -3.2929,2.341 -3.2929,4.4492 a 0.50004899,0.50004899 0 0 0 0,0.02 c 5e-4,0.015 4e-4,0.03 0,0.045 -1e-4,0 0,0 0,0 l -2.5489,28.7636 v 0.01 c -1e-4,0 3e-4,0.01 0,0.01 -6e-4,0.01 0,0.019 0,0.023 -3e-4,0.013 -1e-4,0.016 0,0.02 0,0 0,-0.028 0,-0.027 -0.025,0.3026 -0.014,0.6029 0.031,0.8926 0.045,0.2908 0.1259,0.5714 0.2344,0.8418 -1e-4,0 0,0 0,0 a 0.50004899,0.50004899 0 0 0 0.01,0.023 c 0,0 9e-4,0.01 0,0.01 0.054,0.1297 0.086,0.1691 0.068,0.1289 0.095,0.2089 0.2041,0.4318 0.3555,0.6504 0.3364,0.4853 0.7749,0.9017 1.2792,1.2305 0,0 0.01,0.01 0.01,0.01 0.7642,0.4949 1.6838,0.7871 2.6543,0.7871 h 2.5507 72.7598 2.5938 c 2.5876,0 4.8759,-2.0837 4.6484,-4.6016 v 0 l -2.5488,-28.7675 v 0 c -5e-4,-0.015 -6e-4,-0.03 0,-0.045 a 0.50004899,0.50004899 0 0 0 0,-0.017 c 2e-4,-2.1081 -1.3876,-3.8704 -3.293,-4.4512 a 0.50004899,0.50004899 0 0 0 -0.07,-0.01 c -0.071,-0.032 -0.1643,-0.09 -0.3633,-0.1308 -0.2174,-0.046 -0.3894,-0.043 -0.4844,-0.053 -0.1859,-0.018 -0.324,0 -0.4804,0 z m -66.1172,0.998 c 0.029,0 0.206,0 0.3828,0 h 7.1563 l 4.6816,9.7735 c -2.7552,0.9506 -4.7773,3.4973 -4.7773,6.5625 v 3.4101 c 0,3.8632 3.1589,7.0196 7.0293,7.0196 h 44.5703 c 3.8707,0 7.0296,-3.1564 7.0293,-7.0196 v -3.4101 c 0,-2.5752 -1.4058,-4.8045 -3.4844,-6.0254 l 3.875,-10.3125 h 6.6817 c 0.1978,0 0.3453,-0.01 0.3808,0 0.1706,0.017 0.2889,0.017 0.3769,0.035 a 0.50004899,0.50004899 0 0 0 0.01,0 c -0.01,0 0.094,0.045 0.2734,0.1094 a 0.50004899,0.50004899 0 0 0 0.074,0.014 c 1.4938,0.4597 2.5783,1.8207 2.5782,3.4883 -9e-4,0.034 0,0.069 0,0.1035 a 0.50004899,0.50004899 0 0 0 0,0.025 l 2.5508,28.7949 c 0.1687,1.8568 -1.6015,3.5118 -3.6523,3.5118 h -2.5938 -72.7598 -2.5507 c -0.7677,0 -1.5014,-0.2316 -2.1075,-0.6231 -0.4043,-0.2619 -0.7511,-0.5928 -1.0117,-0.9687 -0.098,-0.1409 -0.1829,-0.3067 -0.2676,-0.4922 v 0 c -0.051,-0.1118 -0.073,-0.1418 -0.055,-0.098 l 0.012,0.031 c 0,-10e-5 -0.01,-0.018 -0.014,-0.031 v 0 c -0.085,-0.2075 -0.1466,-0.4264 -0.1816,-0.6504 -0.034,-0.2162 -0.043,-0.4382 -0.023,-0.666 v 0 a 0.50004899,0.50004899 0 0 0 0,-0.012 c -1e-4,0 0,0.01 0,0.01 4e-4,0 0,-0.012 0,-0.012 0,-10e-5 -2e-4,-0.01 0,-0.016 1e-4,-0.01 -1e-4,-0.01 0,-0.012 l 2.5488,-28.7617 a 0.50004899,0.50004899 0 0 0 0,-0.025 c 0,-0.035 9e-4,-0.071 0,-0.1055 0,-1.6719 1.0867,-3.0351 2.5859,-3.4922 0.2736,-0.082 0.4871,-0.135 0.6816,-0.1543 z m 14.0098,12.0449 c -1.0974,0.163 -2.1293,0.6228 -2.9043,1.3536 -0.775,0.7307 -1.2832,1.7491 -1.2832,2.9394 v 3.4102 c 0,2.5828 2.0681,4.6445 4.6504,4.6445 h 44.5723 c 2.583,0 4.6933,-2.0555 4.6933,-4.6445 v -3.4102 c 0,-0.8632 -0.375,-1.5702 -0.8711,-2.1113 -0.496,-0.5412 -1.1093,-0.9465 -1.6699,-1.3145 a 0.50004899,0.50004899 0 0 0 -0.7422,0.2422 l -1.6152,4.3047 -0.9063,2.416 c -0.049,0.1328 -0.1388,0.2477 -0.2558,0.3281 -0.1166,0.081 -0.2543,0.1241 -0.3965,0.123 a 0.50004899,0.50004899 0 0 0 -0.01,0 l -38.4317,0.043 c -0.132,10e-5 -0.262,-0.036 -0.373,-0.1075 -0.1111,-0.071 -0.1989,-0.1715 -0.2539,-0.291 a 0.50004899,0.50004899 0 0 0 0,-0.01 l -3.6738,-7.6407 a 0.50004899,0.50004899 0 0 0 0,-0.01 l 0.053,0.2227 a 0.50004899,0.50004899 0 0 0 -0.5742,-0.4942 z m -0.1719,1.1348 3.4668,7.2109 c 0.135,0.2936 0.3527,0.5409 0.625,0.7149 0.2725,0.1748 0.5884,0.2679 0.9121,0.2676 l 38.4278,-0.043 c 0.3479,0 0.6886,-0.1028 0.9746,-0.3008 0.2867,-0.1971 0.5063,-0.4764 0.6269,-0.8027 v 0 l 0.9043,-2.416 1.3789,-3.668 c 0.3493,0.2467 0.7242,0.4865 0.9766,0.7618 0.3829,0.4176 0.6074,0.8482 0.6074,1.4355 v 3.4102 c 0,2.0509 -1.6344,3.6445 -3.6933,3.6445 h -44.5723 c -2.058,0 -3.6504,-1.5876 -3.6504,-3.6445 v -3.4102 c 0,-0.9132 0.3663,-1.6448 0.9687,-2.2129 0.5214,-0.4916 1.2733,-0.7701 2.0469,-0.9453 z m -20.6328,19.2051 c 0,0 0.047,0.015 0.061,0.02 -0.021,0.019 -0.077,0.069 -0.078,0.07 0,-0.011 0,-0.023 0,-0.023 0,0 0,-0.012 0,-0.012 0,0 0,-0.012 0,-0.012 0,0 0.012,-0.043 0.012,-0.043 z m 0.064,0.022 c 0.097,0.031 0.4121,0.1308 0.4121,0.1308 0,0 0.3002,0.096 0.4043,0.1289 l -0.4043,0.3711 c 0,0 0,-0.5 0,-0.5 a 0.50004899,0.50004899 0 0 0 -0.4961,-0.043 c 5e-4,0 -7e-4,-0.01 0,-0.012 z m 0.9668,1.4961 c -0.1243,0.073 -0.3145,0.1836 -0.3145,0.1836 0,0 -0.191,-0.098 -0.3203,-0.1641 z m 0.1601,0.3418 c 0,-10e-5 -0.029,0.068 -0.029,0.068 0,0 -0.08,0.1153 -0.08,0.1153 0,0 -0.044,-0.041 -0.061,-0.057 a 0.50004899,0.50004899 0 0 0 0.1699,-0.1269 z m -1.1015,2.6953 a 0.50004899,0.50004899 0 0 0 -0.2891,0.4511 v 37.7461 c 0,2.5825 2.059,4.6875 4.6504,4.6875 h 78.25 c 2.5919,0 4.6504,-2.1051 4.6504,-4.6875 V 1466 a 0.50004899,0.50004899 0 0 0 -0.8203,-0.3848 c -1.0936,0.9055 -2.5187,1.4532 -4.0019,1.4532 h -2.5938 -72.7578 -2.5508 c -1.4842,0 -2.9101,-0.5486 -4.0039,-1.4551 a 0.50004899,0.50004899 0 0 0 -0.5312,-0.066 z m 0.7109,1.3066 c 1.1349,0.7163 2.4243,1.2149 3.8242,1.2149 h 2.5508 72.7578 2.5938 c 1.3988,0 2.6877,-0.4977 3.8222,-1.2129 v 36.8886 c 0,2.0577 -1.5941,3.6875 -3.6504,3.6875 h -78.25 c -2.0556,0 -3.6504,-1.6299 -3.6504,-3.6875 z"
           id="path263" />
      </g>
      <g
         id="path1428"
         style="fill:#2c89a0;fill-opacity:1;stroke-width:0.216972">
        <path
           style="color:#000000;fill:#2c89a0;fill-opacity:1;stroke:none;stroke-width:0.216972;stroke-linecap:round;stroke-linejoin:round;-inkscape-stroke:none"
           d="m 2608.356,1406.6955 a 1.1856645,1.1856645 0 0 0 -1.1906,1.1907 v 2.7305 a 1.1856645,1.1856645 0 0 0 1.1906,1.1907 1.1856645,1.1856645 0 0 0 1.1901,-1.1907 v -2.7305 a 1.1856645,1.1856645 0 0 0 -1.1901,-1.1907 z m -5.1118,5.1113 a 1.1856645,1.1856645 0 0 0 -1.1901,1.1907 1.1856645,1.1856645 0 0 0 1.1901,1.1906 h 2.7311 a 1.1856645,1.1856645 0 0 0 1.1901,-1.1906 1.1856645,1.1856645 0 0 0 -1.1901,-1.1907 z m 7.4921,0 a 1.1856645,1.1856645 0 0 0 -1.1902,1.1907 1.1856645,1.1856645 0 0 0 1.1902,1.1906 h 2.7311 a 1.1856645,1.1856645 0 0 0 1.1901,-1.1906 1.1856645,1.1856645 0 0 0 -1.1901,-1.1907 z m -2.3803,2.3808 a 1.1856645,1.1856645 0 0 0 -1.1906,1.1906 v 2.7306 a 1.1856645,1.1856645 0 0 0 1.1906,1.1906 1.1856645,1.1856645 0 0 0 1.1901,-1.1906 v -2.7306 a 1.1856645,1.1856645 0 0 0 -1.1901,-1.1906 z m 110.1344,15.2404 a 1.1856645,1.1856645 0 0 0 -1.1906,1.1901 v 2.7306 a 1.1856645,1.1856645 0 0 0 1.1906,1.1906 1.1856645,1.1856645 0 0 0 1.1901,-1.1906 v -2.7306 a 1.1856645,1.1856645 0 0 0 -1.1901,-1.1901 z m -5.1118,5.1113 a 1.1856645,1.1856645 0 0 0 -1.1901,1.1901 1.1856645,1.1856645 0 0 0 1.1901,1.1906 h 2.7311 a 1.1856645,1.1856645 0 0 0 1.1901,-1.1906 1.1856645,1.1856645 0 0 0 -1.1901,-1.1901 z m 7.492,0 a 1.1856645,1.1856645 0 0 0 -1.1901,1.1901 1.1856645,1.1856645 0 0 0 1.1901,1.1906 h 2.7311 a 1.1856645,1.1856645 0 0 0 1.1901,-1.1906 1.1856645,1.1856645 0 0 0 -1.1901,-1.1901 z m -2.3802,2.3807 a 1.1856645,1.1856645 0 0 0 -1.1906,1.1902 v 2.7311 a 1.1856645,1.1856645 0 0 0 1.1906,1.1901 1.1856645,1.1856645 0 0 0 1.1901,-1.1901 v -2.7311 a 1.1856645,1.1856645 0 0 0 -1.1901,-1.1902 z m -36.7642,46.0412 a 1.1856645,1.1856645 0 0 0 -1.1901,1.1906 v 2.7306 a 1.1856645,1.1856645 0 0 0 1.1901,1.1906 1.1856645,1.1856645 0 0 0 1.1907,-1.1906 v -2.7306 a 1.1856645,1.1856645 0 0 0 -1.1907,-1.1906 z m -5.1113,5.1113 a 1.1856645,1.1856645 0 0 0 -1.1906,1.1906 1.1856645,1.1856645 0 0 0 1.1906,1.1906 h 2.7306 a 1.1856645,1.1856645 0 0 0 1.1906,-1.1906 1.1856645,1.1856645 0 0 0 -1.1906,-1.1906 z m 7.4921,0 a 1.1856645,1.1856645 0 0 0 -1.1907,1.1906 1.1856645,1.1856645 0 0 0 1.1907,1.1906 h 2.7305 a 1.1856645,1.1856645 0 0 0 1.1907,-1.1906 1.1856645,1.1856645 0 0 0 -1.1907,-1.1906 z m -2.3808,2.3807 a 1.1856645,1.1856645 0 0 0 -1.1901,1.1906 v 2.7306 a 1.1856645,1.1856645 0 0 0 1.1901,1.1906 1.1856645,1.1856645 0 0 0 1.1907,-1.1906 v -2.7306 a 1.1856645,1.1856645 0 0 0 -1.1907,-1.1906 z"
           id="path277" />
        <path
           style="color:#000000;fill:#2c89a0;fill-opacity:1;stroke:none;stroke-width:0.216972;stroke-linecap:round;stroke-linejoin:round;-inkscape-stroke:none"
           d="m 2608.3555,1406.1953 c -0.9296,0 -1.6934,0.7636 -1.6895,1.6934 v 2.7285 c 0,0.4591 0.1895,0.8736 0.4903,1.1797 -0.3059,-0.3008 -0.7227,-0.4915 -1.1817,-0.4903 h -2.7285 v 0 c -0.9286,0 -1.6923,0.7628 -1.6894,1.6914 0,0.9286 0.7609,1.6919 1.6894,1.6895 h 2.7305 c 0.459,0 0.8758,-0.1895 1.1817,-0.4902 -0.3012,0.3064 -0.4922,0.7237 -0.4903,1.1836 v 2.7285 c 0,0.9288 0.7606,1.6922 1.6895,1.6894 0.9292,0 1.6953,-0.7619 1.6914,-1.6914 v -2.7265 0 c 0,-0.4589 -0.1897,-0.8756 -0.4903,-1.1816 0.3059,0.3 0.7214,0.4914 1.1797,0.4902 h 2.7305 c 0.9286,0 1.6942,-0.7609 1.6914,-1.6895 0,-0.9286 -0.7628,-1.6938 -1.6914,-1.6914 h -2.7285 v 0 c -0.4583,0 -0.8738,0.1903 -1.1797,0.4903 0.3011,-0.3065 0.4922,-0.7219 0.4903,-1.1817 v -2.7265 0 c 0,-0.9286 -0.7628,-1.6938 -1.6914,-1.6914 z m 0,1 c 0.3869,0 0.6911,0.3026 0.6895,0.6895 v 2.7305 c 0,0.3869 -0.3026,0.689 -0.6895,0.6875 -0.387,0 -0.6891,-0.3004 -0.6875,-0.6875 v -2.7305 c 0,-0.3871 0.3005,-0.6911 0.6875,-0.6895 z m -1.1777,4.6211 c 0.306,0.3008 0.7206,0.4916 1.1797,0.4902 0.4583,0 0.8739,-0.1902 1.1797,-0.4902 -0.3007,0.3061 -0.4897,0.7226 -0.4883,1.1816 0,0.459 0.1876,0.8737 0.4883,1.1797 -0.3058,-0.3 -0.7214,-0.4914 -1.1797,-0.4902 -0.4591,0 -0.8737,0.1895 -1.1797,0.4902 0.3006,-0.306 0.4916,-0.7207 0.4902,-1.1797 0,-0.4589 -0.1896,-0.8755 -0.4902,-1.1816 z m -3.9336,0.4902 h 2.7305 c 0.3869,0 0.6911,0.3026 0.6894,0.6895 0,0.3869 -0.3026,0.689 -0.6894,0.6875 h -2.7305 c -0.3869,0 -0.6891,-0.3006 -0.6875,-0.6875 0,-0.3869 0.3006,-0.6909 0.6875,-0.6895 z m 7.4922,0 h 2.7305 c 0.3868,0 0.691,0.3026 0.6894,0.6895 0,0.3869 -0.3026,0.689 -0.6894,0.6875 h -2.7305 c -0.3869,0 -0.6891,-0.3006 -0.6875,-0.6875 0,-0.3869 0.3006,-0.6909 0.6875,-0.6895 z m -2.3809,2.3809 c 0.3869,0 0.6911,0.3026 0.6895,0.6895 v 2.7305 c 0,0.3869 -0.3026,0.689 -0.6895,0.6875 -0.387,0 -0.6891,-0.3005 -0.6875,-0.6875 v -2.7305 c 0,-0.387 0.3005,-0.6911 0.6875,-0.6895 z m 110.1367,14.2402 c -0.9292,0 -1.6949,0.762 -1.6914,1.6914 v 2.7266 c 0,0.4599 0.1891,0.8771 0.4903,1.1836 -0.3058,-0.2998 -0.7216,-0.4914 -1.1797,-0.4902 h -2.7285 v 0 c -0.9283,0 -1.6919,0.7611 -1.6894,1.6894 0,0.9286 0.7608,1.6938 1.6894,1.6914 h 2.7305 c 0.4589,0 0.8757,-0.1895 1.1816,-0.4902 -0.3011,0.3063 -0.4939,0.7219 -0.4922,1.1816 v 2.7305 c 0,0.9286 0.7629,1.6923 1.6914,1.6895 0.929,0 1.693,-0.7623 1.6895,-1.6915 v -2.7285 0 c 0,-0.4589 -0.1897,-0.8738 -0.4902,-1.1797 0.3058,0.3007 0.7226,0.4914 1.1816,0.4902 h 2.7305 c 0.9285,0 1.6922,-0.7628 1.6894,-1.6914 0,-0.9283 -0.7611,-1.6918 -1.6894,-1.6894 h -2.7286 v 0 c -0.4582,0 -0.8739,0.1904 -1.1797,0.4902 0.301,-0.3065 0.4902,-0.7239 0.4883,-1.1836 v -2.7266 0 c 0,-0.9283 -0.7612,-1.6919 -1.6895,-1.6895 z m 0,1 c 0.3867,0 0.6889,0.3027 0.6875,0.6895 v 2.7324 c 0,0.3868 -0.3006,0.6889 -0.6875,0.6875 -0.387,0 -0.6911,-0.3005 -0.6895,-0.6875 v -2.7324 c 0,-0.3869 0.3026,-0.6911 0.6895,-0.6895 z m -1.1778,4.6211 c 0.306,0.3 0.7213,0.4916 1.1797,0.4903 0.4583,0 0.8739,-0.1903 1.1797,-0.4903 -0.3006,0.3059 -0.4914,0.7209 -0.4902,1.1797 0,0.459 0.1896,0.8756 0.4902,1.1817 -0.3059,-0.3007 -0.7208,-0.4915 -1.1797,-0.4903 -0.4589,0 -0.8736,0.1896 -1.1797,0.4903 0.3006,-0.3061 0.4897,-0.7227 0.4883,-1.1817 0,-0.4588 -0.1877,-0.8738 -0.4883,-1.1797 z m -3.9335,0.4903 h 2.7305 c 0.3868,0 0.689,0.3007 0.6875,0.6875 a 0.50005,0.50005 0 0 0 0,0.01 c 0,0.3869 -0.3006,0.689 -0.6875,0.6875 h -2.7305 c -0.3869,0 -0.6892,-0.3006 -0.6875,-0.6875 0,-0.3868 0.3007,-0.689 0.6875,-0.6875 z m 7.4921,0 h 2.7305 c 0.3868,0 0.689,0.3007 0.6875,0.6875 a 0.50005,0.50005 0 0 0 0,0.01 c 0,0.3869 -0.3006,0.689 -0.6875,0.6875 h -2.7305 c -0.3868,0 -0.691,-0.3006 -0.6894,-0.6875 0,-0.3868 0.3027,-0.689 0.6894,-0.6875 z m -2.3808,2.3808 c 0.3868,0 0.689,0.3007 0.6875,0.6875 v 2.7324 c 0,0.3867 -0.3008,0.6889 -0.6875,0.6875 -0.3869,0 -0.6909,-0.3007 -0.6895,-0.6875 v -2.7324 c 0,-0.3869 0.3026,-0.6891 0.6895,-0.6875 z m -36.7617,45.041 c -0.9293,0 -1.6953,0.7639 -1.6914,1.6934 v 2.7285 c 0,0.459 0.1896,0.8737 0.4902,1.1797 -0.3059,-0.3 -0.7213,-0.4916 -1.1797,-0.4902 h -2.7285 v 0 c -0.9288,0 -1.6942,0.7625 -1.6914,1.6914 0,0.9288 0.7626,1.6922 1.6914,1.6894 h 2.7305 c 0.4584,0 0.8738,-0.1902 1.1797,-0.4902 -0.301,0.3064 -0.4922,0.7239 -0.4902,1.1836 v 2.7285 c 0,0.9286 0.7628,1.6919 1.6914,1.6895 0.9295,0 1.6933,-0.7617 1.6894,-1.6915 v -2.7265 0 c 0,-0.4591 -0.1894,-0.8756 -0.4902,-1.1816 0.306,0.3007 0.7225,0.4917 1.1816,0.4902 h 2.7305 c 0.9289,0 1.6922,-0.7605 1.6894,-1.6894 0,-0.9289 -0.7605,-1.6943 -1.6894,-1.6914 h -2.7285 v 0 c -0.4591,0 -0.8756,0.1895 -1.1816,0.4902 0.3012,-0.3065 0.4921,-0.7218 0.4902,-1.1816 v -2.7266 0 c 0,-0.9289 -0.7605,-1.6942 -1.6894,-1.6914 z m 0,1 c 0.387,0 0.6891,0.3025 0.6875,0.6895 v 2.7305 c 0,0.387 -0.3005,0.6891 -0.6875,0.6875 -0.3869,0 -0.6911,-0.3007 -0.6894,-0.6875 v -2.7305 c 0,-0.3869 0.3025,-0.6909 0.6894,-0.6895 z m -1.1777,4.6211 c 0.3058,0.3 0.7214,0.4915 1.1797,0.4903 0.4591,0 0.8736,-0.1895 1.1797,-0.4903 -0.3008,0.3061 -0.4917,0.7226 -0.4903,1.1817 0,0.4591 0.1895,0.8736 0.4903,1.1797 -0.3061,-0.3008 -0.7206,-0.4917 -1.1797,-0.4903 -0.4583,0 -0.8739,0.1903 -1.1797,0.4903 0.3007,-0.3061 0.4896,-0.7207 0.4883,-1.1797 0,-0.4591 -0.1876,-0.8756 -0.4883,-1.1817 z m -3.9336,0.4903 h 2.7305 c 0.3869,0 0.6891,0.3024 0.6875,0.6894 0,0.387 -0.3006,0.6891 -0.6875,0.6875 h -2.7305 c -0.387,0 -0.6911,-0.3005 -0.6895,-0.6875 0,-0.387 0.3025,-0.691 0.6895,-0.6894 z m 7.4922,0 h 2.7305 c 0.3871,0 0.6892,0.3024 0.6875,0.6894 0,0.387 -0.3004,0.6892 -0.6875,0.6875 h -2.7305 c -0.387,0 -0.6911,-0.3005 -0.6895,-0.6875 0,-0.387 0.3025,-0.6911 0.6895,-0.6894 z m -2.3809,2.3808 c 0.387,0 0.6891,0.3025 0.6875,0.6895 v 2.7305 c 0,0.387 -0.3005,0.6891 -0.6875,0.6875 -0.3869,0 -0.6911,-0.3007 -0.6894,-0.6875 v -2.7305 c 0,-0.3869 0.3025,-0.6909 0.6894,-0.6895 z"
           id="path319" />
      </g>
    </g>
  </g>
</svg>
